<svg width="149" height="43" viewBox="0 0 149 43" fill="none" xmlns="http://www.w3.org/2000/svg">
<path fill-rule="evenodd" clip-rule="evenodd" d="M40.7008 42.6L39.1008 40.2H38.2008V42.6C38.2008 42.6666 38.1675 42.7 38.1008 42.7H37.5008C37.3674 42.7 37.3008 42.6666 37.3008 42.6V36.2C37.3008 36.0667 37.3674 36 37.5008 36H39.3008C40.8008 36 41.6008 36.9 41.6008 38.1C41.6008 39.2 41.1008 39.9 40.0008 40.2L41.6008 42.6C41.6675 42.6666 41.6341 42.7 41.5008 42.7H40.9008C40.8341 42.7 40.7674 42.6666 40.7008 42.6ZM39.3008 39.4C40.1008 39.4 40.7008 39.1 40.7008 38.1C40.7008 37.2 40.1008 36.8 39.3008 36.8H38.2008V39.4H39.3008Z" fill="#231F20"/>
<path d="M42.9023 42.6V36.2C42.9023 36.0667 42.969 36 43.1024 36H46.3024C46.4357 36 46.5023 36.0667 46.5023 36.2V36.7C46.5023 36.7667 46.4357 36.8 46.3024 36.8H43.8024V38.9H46.2023C46.269 38.9 46.3024 38.9333 46.3024 39V39.6C46.3024 39.6666 46.269 39.7 46.2023 39.7H43.8024V41.9H46.3024C46.4357 41.9 46.5023 41.9666 46.5023 42.1V42.6C46.5023 42.6666 46.4357 42.7 46.3024 42.7H43.1024C42.969 42.7 42.9023 42.6666 42.9023 42.6Z" fill="#231F20"/>
<path d="M51.7023 42.6L48.8024 37.4V42.6C48.8024 42.6666 48.769 42.7 48.7023 42.7H48.1024C47.969 42.7 47.9023 42.6666 47.9023 42.6V36.2C47.9023 36.0667 47.969 36 48.1024 36H48.9023C48.969 36 49.0023 36.0333 49.0023 36.1L52.0023 41.4V36.2C52.0023 36.0667 52.0357 36 52.1024 36H52.7023C52.8357 36 52.9023 36.0667 52.9023 36.2V42.6C52.9023 42.6666 52.8357 42.7 52.7023 42.7H51.9023C51.8357 42.7 51.769 42.6666 51.7023 42.6Z" fill="#231F20"/>
<path d="M55.7992 42.6V36.8H54.3992C54.2659 36.8 54.1992 36.7667 54.1992 36.7V36.2C54.1992 36.0667 54.2659 36 54.3992 36H57.9992C58.1326 36 58.1992 36.0667 58.1992 36.2V36.7C58.1992 36.7667 58.1326 36.8 57.9992 36.8H56.5992V42.6C56.5992 42.6666 56.5659 42.7 56.4992 42.7H55.8992C55.8325 42.7 55.7992 42.6666 55.7992 42.6Z" fill="#231F20"/>
<path fill-rule="evenodd" clip-rule="evenodd" d="M58.2013 42.6L60.5013 36.1C60.5013 36.0333 60.5346 36 60.6013 36H61.3013C61.4346 36 61.5013 36.0333 61.5013 36.1L63.8013 42.6C63.868 42.6666 63.8346 42.7 63.7013 42.7H63.1013C62.968 42.7 62.9013 42.6666 62.9013 42.6L62.5013 41.3H59.5013L59.1013 42.6C59.1013 42.6666 59.0346 42.7 58.9013 42.7H58.3013C58.168 42.7 58.1346 42.6666 58.2013 42.6ZM62.2013 40.5L61.0013 37.1L59.8013 40.5H62.2013Z" fill="#231F20"/>
<path fill-rule="evenodd" clip-rule="evenodd" d="M67 42.6V36.2C67 36.0667 67.0333 36 67.1 36H68.7C71 36 72.1 37.5 72.1 39.4C72.1 41.3 71 42.7 68.7 42.7H67.1C67.0333 42.7 67 42.6666 67 42.6ZM68.7 41.9C70.4 41.9 71.2 41 71.2 39.4C71.2 37.8 70.4 36.8 68.7 36.8H67.9V41.9H68.7Z" fill="#231F20"/>
<path d="M73.4023 42.6V36.2C73.4023 36.0667 73.469 36 73.6024 36H76.8024C76.9357 36 77.0023 36.0667 77.0023 36.2V36.7C77.0023 36.7667 76.9357 36.8 76.8024 36.8H74.3024V38.9H76.7023C76.769 38.9 76.8024 38.9333 76.8024 39V39.6C76.8024 39.6666 76.769 39.7 76.7023 39.7H74.3024V41.9H76.8024C76.9357 41.9 77.0023 41.9666 77.0023 42.1V42.6C77.0023 42.6666 76.9357 42.7 76.8024 42.7H73.6024C73.469 42.7 73.4023 42.6666 73.4023 42.6Z" fill="#231F20"/>
<path d="M81.6992 42.6V36.8H80.2992C80.2326 36.8 80.1992 36.7667 80.1992 36.7V36.2C80.1992 36.0667 80.2326 36 80.2992 36H83.9992C84.0659 36 84.0992 36.0667 84.0992 36.2V36.7C84.0992 36.7667 84.0659 36.8 83.9992 36.8H82.5992V42.6C82.5992 42.6666 82.5325 42.7 82.3992 42.7H81.7992C81.7326 42.7 81.6992 42.6666 81.6992 42.6Z" fill="#231F20"/>
<path fill-rule="evenodd" clip-rule="evenodd" d="M88.9 42.6L87.3 40.2H86.4V42.6C86.4 42.6666 86.3333 42.7 86.2 42.7H85.6C85.5333 42.7 85.5 42.6666 85.5 42.6V36.2C85.5 36.0667 85.5333 36 85.6 36H87.5C89 36 89.8 36.9 89.8 38.1C89.8 39.2 89.2 39.9 88.2 40.2L89.8 42.6C89.8667 42.6666 89.8333 42.7 89.7 42.7H89C88.9333 42.7 88.9 42.6666 88.9 42.6ZM87.4 39.4C88.2 39.4 88.9 39.1 88.9 38.1C88.9 37.2 88.2 36.8 87.4 36.8H86.4V39.4H87.4Z" fill="#231F20"/>
<path fill-rule="evenodd" clip-rule="evenodd" d="M90.7013 42.6L93.0013 36.1C93.0013 36.0333 93.0346 36 93.1013 36H93.8013C93.9346 36 94.0013 36.0333 94.0013 36.1L96.3013 42.6C96.368 42.6666 96.3346 42.7 96.2013 42.7H95.6013C95.468 42.7 95.4013 42.6666 95.4013 42.6L95.0013 41.3H92.0013L91.6013 42.6C91.6013 42.6666 91.5346 42.7 91.4013 42.7H90.8013C90.668 42.7 90.6346 42.6666 90.7013 42.6ZM94.7013 40.5L93.5013 37.1L92.3013 40.5H94.7013Z" fill="#231F20"/>
<path d="M97.3 42.2C97.2333 42.1333 97.2333 42.0667 97.3 42L97.7 41.5C97.7 41.5 97.7333 41.5 97.8 41.5C98.1 41.8 98.4 42 98.9 42C99.6 42 100 41.5 100 40.5V36.2C100 36.0667 100.067 36 100.2 36H100.8C100.867 36 100.9 36.0667 100.9 36.2V40.5C100.9 42.1 100.1 42.9 98.9 42.9C98.1 42.9 97.6 42.5 97.3 42.2Z" fill="#231F20"/>
<path d="M102.5 42.6V36.2C102.5 36.0667 102.533 36 102.6 36H105.9C105.967 36 106 36.0667 106 36.2V36.7C106 36.7667 105.967 36.8 105.9 36.8H103.4V38.9H105.8C105.867 38.9 105.9 38.9333 105.9 39V39.6C105.9 39.6666 105.867 39.7 105.8 39.7H103.4V41.9H105.9C105.967 41.9 106 41.9666 106 42.1V42.6C106 42.6666 105.967 42.7 105.9 42.7H102.6C102.533 42.7 102.5 42.6666 102.5 42.6Z" fill="#231F20"/>
<path d="M107.3 41.8C107.233 41.7333 107.233 41.6666 107.3 41.6L107.6 41.3C107.667 41.2333 107.733 41.2333 107.8 41.3C108.2 41.7 108.6 42 109.3 42C110.1 42 110.5 41.6 110.5 41C110.5 40.3 110.1 40.1 109.4 39.8L108.6 39.4C107.9 39 107.4 38.5 107.4 37.7C107.4 36.6 108.2 36 109.3 36C110.1 36 110.7 36.3 111.1 36.8C111.2 36.9 111.2 37 111.2 37L110.8 37.4C110.733 37.4667 110.667 37.4667 110.6 37.4C110.2 37 109.9 36.8 109.3 36.8C108.7 36.8 108.3 37.1 108.3 37.7C108.3 38.1 108.5 38.4 109.1 38.7L109.9 39.1C110.7 39.4 111.4 39.9 111.4 41C111.4 42.2 110.5 42.8 109.3 42.8C108.3 42.8 107.6 42.4 107.3 41.8Z" fill="#231F20"/>
<path d="M0.300781 18.1002V9.40021C0.300781 4.30021 3.80078 0.700195 8.70078 0.700195C13.7008 0.700195 17.2008 4.2002 17.3008 9.2002H12.3008C12.3008 6.5002 10.9008 5.40021 8.80078 5.40021C6.60078 5.40021 5.30078 6.60021 5.30078 9.90021V18.3002C5.30078 20.9002 6.60078 22.1002 8.70078 22.1002C10.6008 22.1002 12.3008 21.1002 12.3008 18.3002V17.8002H8.80078V13.5002H17.3008V18.1002C17.3008 23.3002 13.8008 26.8002 8.70078 26.8002C3.80078 26.8002 0.300781 23.3002 0.300781 18.1002Z" fill="#231F20"/>
<path fill-rule="evenodd" clip-rule="evenodd" d="M26.5016 1.10059H31.9016L39.2016 26.5006H34.2016L32.9016 21.5006H25.5016L24.1016 26.5006H19.1016L26.5016 1.10059ZM31.8016 17.1006L29.2016 7.20062L26.5016 17.1006H31.8016Z" fill="#231F20"/>
<path d="M41.6992 1.10059H46.5992V21.7006H55.0992V26.5006H41.6992V1.10059Z" fill="#231F20"/>
<path d="M58 1.10059H63V21.7006H71.4V26.5006H58V1.10059Z" fill="#231F20"/>
<path d="M74.3008 1.10059H88.5008V5.90063H79.3008V11.7006H86.1008V16.0006H79.3008V21.7006H88.5008V26.5006H74.3008V1.10059Z" fill="#231F20"/>
<path d="M91.3008 18.1002V9.40021C91.3008 4.30021 94.7008 0.700195 99.7008 0.700195C104.701 0.700195 108.101 4.2002 108.301 9.2002H103.301C103.301 6.5002 101.901 5.40021 99.8008 5.40021C97.6008 5.40021 96.3008 6.60021 96.3008 9.90021V18.3002C96.3008 20.9002 97.6008 22.1002 99.7008 22.1002C101.601 22.1002 103.301 21.1002 103.301 18.3002V17.8002H99.8008V13.5002H108.301V18.1002C108.301 23.3002 104.801 26.8002 99.7008 26.8002C94.7008 26.8002 91.3008 23.3002 91.3008 18.1002Z" fill="#231F20"/>
<path fill-rule="evenodd" clip-rule="evenodd" d="M111.5 18.1002V9.50018C111.5 4.30018 115 0.700195 120 0.700195C125 0.700195 128.5 4.30018 128.5 9.50018V18.1002C128.5 23.2002 125 26.8002 120 26.8002C115 26.8002 111.5 23.2002 111.5 18.1002ZM120 22.1002C121.7 22.1002 123.6 21.2002 123.6 18.3002V9.30017C123.6 6.50017 121.9 5.40021 120 5.40021C118.2 5.40021 116.5 6.30017 116.5 9.30017V18.2002C116.5 21.1002 118.1 22.1002 120 22.1002Z" fill="#231F20"/>
<path d="M131.199 18.1002H136.199C136.199 21.1002 137.699 22.3002 139.899 22.3002C141.999 22.3002 143.499 21.3002 143.499 19.2002C143.499 17.1002 141.199 16.4002 138.599 15.6002C135.299 14.5002 131.499 13.1002 131.499 8.10016C131.499 3.50016 134.799 0.700195 139.899 0.700195C144.799 0.700195 148.099 3.90016 148.099 9.10016H143.199C143.199 6.50016 141.899 5.2002 139.799 5.2002C137.699 5.2002 136.499 6.20016 136.499 8.10016C136.499 10.3002 138.599 10.9002 141.199 11.7002C144.499 12.8002 148.499 14.0002 148.499 19.2002C148.499 24.0002 144.999 26.9002 139.899 26.9002C134.699 26.9002 131.199 23.6002 131.199 18.1002Z" fill="#231F20"/>
</svg>
