<svg width="48" height="48" viewBox="0 0 48 48" fill="none" xmlns="http://www.w3.org/2000/svg">
<path d="M24 0C10.7448 0 0 10.7448 0 24C0 37.2552 10.7448 48 24 48C37.2552 48 48 37.2552 48 24C48 10.7448 37.2552 0 24 0Z" fill="url(#paint0_linear_2909_88)"/>
<path d="M27.2486 30.3612H33.4598L34.4354 24.0516H27.2486V20.6028C27.2486 17.982 28.1054 15.6576 30.557 15.6576H34.4966V10.152C33.8042 10.0584 32.3402 9.8544 29.5742 9.8544C23.7974 9.8544 20.411 12.9048 20.411 19.8552V24.0528H14.4722V30.3624H20.4098V47.7048C21.5858 47.88 22.7774 48 24.0002 48C25.1054 48 26.1842 47.8992 27.2486 47.7552V30.3612Z" fill="white"/>
<defs>
<linearGradient id="paint0_linear_2909_88" x1="7.1916" y1="7.1916" x2="43.938" y2="43.938" gradientUnits="userSpaceOnUse">
<stop stop-color="#2AA4F4"/>
<stop offset="1" stop-color="#007AD9"/>
</linearGradient>
</defs>
</svg>
