<svg width="170" height="170" viewBox="0 0 170 170" fill="none" xmlns="http://www.w3.org/2000/svg">
<circle cx="85" cy="85" r="85" fill="#696969"/>
<path d="M99.5893 53.6629L97.9004 51H87.6802V74.9831L87.6454 98.4092C87.6628 98.5833 87.6802 98.7747 87.6802 98.9488C87.6802 104.814 82.9097 109.6 77.0248 109.6C71.1399 109.6 66.3693 104.831 66.3693 98.9488C66.3693 93.0835 71.1399 88.2974 77.0248 88.2974C78.2435 88.2974 79.4275 88.5236 80.5244 88.9065V77.2108C79.3927 77.0194 78.2261 76.915 77.0248 76.915C64.8894 76.9324 55 86.818 55 98.9662C55 111.114 64.8894 121 77.0422 121C89.195 121 99.0844 111.114 99.0844 98.9662V71.1019C103.489 75.5052 109.183 79.8041 115.485 81.179V69.2223C108.643 66.1939 101.835 57.2481 99.5893 53.6629Z" fill="white"/>
</svg>
