<svg width="170" height="170" viewBox="0 0 170 170" fill="none" xmlns="http://www.w3.org/2000/svg">
<circle cx="85" cy="85" r="85" fill="#696969"/>
<path d="M117.619 71.1393C115.84 67.209 113.287 63.6803 110.045 60.6393C106.803 57.627 103.045 55.2459 98.8566 53.582C94.5247 51.8607 89.9345 51 85.2009 51C80.4673 51 75.8771 51.8607 71.5451 53.582C67.3566 55.2459 63.5984 57.5984 60.3566 60.6393C57.1148 63.6803 54.5615 67.209 52.7828 71.1393C50.9468 75.2131 50 79.5738 50 84.0492C50 91.8811 52.9262 99.3975 58.291 105.365L55.4221 121L70.6845 114.201C75.2459 116.152 80.0943 117.127 85.1722 117.127C89.9058 117.127 94.496 116.266 98.8279 114.545C103.016 112.881 106.775 110.529 110.016 107.488C113.258 104.447 115.812 100.918 117.59 96.9877C119.426 92.9139 120.373 88.5533 120.373 84.0779C120.402 79.5738 119.455 75.2418 117.619 71.1393Z" fill="white"/>
<path d="M99.4878 90.6474C97.996 89.9015 96.9059 89.4425 96.1313 89.1556C95.6436 88.9835 94.4961 88.4671 94.0944 88.7827C92.8321 89.8155 91.4837 92.7417 90.0493 93.2868C86.4919 92.5982 83.1928 90.1597 80.6108 87.6638C79.4633 86.5737 77.3403 83.4753 76.8813 82.6433C76.7952 81.7827 78.3444 80.6351 78.6886 79.9753C80.4673 77.9671 79.119 76.7048 78.8895 75.8728C78.4879 75.0122 77.7994 73.463 77.1969 72.2007C76.6805 71.3687 76.5657 70.1351 75.6476 69.6761C71.746 67.6679 69.5084 71.6843 68.5904 73.7786C63.0535 87.1187 96.3321 112.508 103.103 95.0081C103.447 93.4876 103.303 92.9138 102.787 92.2253C101.754 91.5081 100.549 91.1925 99.4878 90.6474Z" fill="#696969"/>
</svg>
